<svg width="47" height="47" viewBox="0 0 47 47" fill="none" xmlns="http://www.w3.org/2000/svg">
<g filter="url(#filter0_d_337_23)">
<circle cx="23.2154" cy="20.2154" r="18.2154" fill="white"/>
</g>
<path d="M22 2C18.0444 2 14.1776 3.17298 10.8886 5.37061C7.59962 7.56823 5.03617 10.6918 3.52242 14.3463C2.00867 18.0008 1.6126 22.0222 2.3843 25.9018C3.15601 29.7814 5.06082 33.3451 7.85787 36.1421C10.6549 38.9392 14.2186 40.844 18.0982 41.6157C21.9778 42.3874 25.9991 41.9913 29.6537 40.4776C33.3082 38.9638 36.4318 36.4004 38.6294 33.1114C40.827 29.8224 42 25.9556 42 22C41.9944 16.6974 39.8855 11.6136 36.136 7.86405C32.3864 4.11453 27.3026 2.0056 22 2ZM30.7808 18.4731L20.0115 29.2423C19.8687 29.3853 19.699 29.4988 19.5122 29.5762C19.3255 29.6537 19.1253 29.6935 18.9231 29.6935C18.7209 29.6935 18.5207 29.6537 18.3339 29.5762C18.1472 29.4988 17.9775 29.3853 17.8346 29.2423L13.2192 24.6269C12.9306 24.3382 12.7684 23.9467 12.7684 23.5385C12.7684 23.1302 12.9306 22.7387 13.2192 22.45C13.5079 22.1613 13.8994 21.9991 14.3077 21.9991C14.716 21.9991 15.1075 22.1613 15.3962 22.45L18.9231 25.9788L28.6038 16.2962C28.7468 16.1532 28.9165 16.0398 29.1032 15.9625C29.29 15.8851 29.4902 15.8453 29.6923 15.8453C29.8945 15.8453 30.0946 15.8851 30.2814 15.9625C30.4681 16.0398 30.6378 16.1532 30.7808 16.2962C30.9237 16.4391 31.0371 16.6088 31.1145 16.7955C31.1918 16.9823 31.2316 17.1825 31.2316 17.3846C31.2316 17.5868 31.1918 17.7869 31.1145 17.9737C31.0371 18.1604 30.9237 18.3301 30.7808 18.4731Z" fill="#2ECF64"/>
<defs>
<filter id="filter0_d_337_23" x="0" y="0" width="46.4308" height="46.4308" filterUnits="userSpaceOnUse" color-interpolation-filters="sRGB">
<feFlood flood-opacity="0" result="BackgroundImageFix"/>
<feColorMatrix in="SourceAlpha" type="matrix" values="0 0 0 0 0 0 0 0 0 0 0 0 0 0 0 0 0 0 127 0" result="hardAlpha"/>
<feMorphology radius="1" operator="dilate" in="SourceAlpha" result="effect1_dropShadow_337_23"/>
<feOffset dy="3"/>
<feGaussianBlur stdDeviation="2"/>
<feComposite in2="hardAlpha" operator="out"/>
<feColorMatrix type="matrix" values="0 0 0 0 0.156863 0 0 0 0 0.352941 0 0 0 0 0.72549 0 0 0 0.1 0"/>
<feBlend mode="normal" in2="BackgroundImageFix" result="effect1_dropShadow_337_23"/>
<feBlend mode="normal" in="SourceGraphic" in2="effect1_dropShadow_337_23" result="shape"/>
</filter>
</defs>
</svg>
