<svg width="40" height="40" viewBox="0 0 40 40" fill="none" xmlns="http://www.w3.org/2000/svg">
<circle cx="19.6923" cy="19.6923" r="19.6923" fill="white"/>
<path d="M20 0C16.0444 0 12.1776 1.17298 8.8886 3.37061C5.59962 5.56823 3.03617 8.69181 1.52242 12.3463C0.00866569 16.0008 -0.387401 20.0222 0.384303 23.9018C1.15601 27.7814 3.06082 31.3451 5.85787 34.1421C8.65492 36.9392 12.2186 38.844 16.0982 39.6157C19.9778 40.3874 23.9991 39.9913 27.6537 38.4776C31.3082 36.9638 34.4318 34.4004 36.6294 31.1114C38.827 27.8224 40 23.9556 40 20C39.9944 14.6974 37.8855 9.61356 34.136 5.86405C30.3864 2.11453 25.3026 0.00559965 20 0ZM27.6923 21.5385H12.3077C11.8997 21.5385 11.5084 21.3764 11.2198 21.0879C10.9313 20.7993 10.7692 20.408 10.7692 20C10.7692 19.592 10.9313 19.2007 11.2198 18.9121C11.5084 18.6236 11.8997 18.4615 12.3077 18.4615H27.6923C28.1003 18.4615 28.4917 18.6236 28.7802 18.9121C29.0687 19.2007 29.2308 19.592 29.2308 20C29.2308 20.408 29.0687 20.7993 28.7802 21.0879C28.4917 21.3764 28.1003 21.5385 27.6923 21.5385Z" fill="#FFD859"/>
</svg>
