<svg width="796" height="167" viewBox="0 0 796 167" fill="none" xmlns="http://www.w3.org/2000/svg">
<path d="M112.179 43.4648C126.037 19.4632 155.3 10.4152 177.541 23.2558C199.781 36.0965 206.577 65.9632 192.719 89.9648C178.867 113.956 108.6 142.743 108.541 142.768C108.541 142.768 98.3221 67.4667 112.179 43.4648Z" fill="white"/>
<path d="M105.631 43.4587C119.489 67.4603 109.27 142.762 109.27 142.762C109.27 142.762 38.9482 113.96 25.0909 89.9587C11.2336 65.9571 18.0296 36.0906 40.2702 23.25C62.5108 10.4094 91.7739 19.4571 105.631 43.4587Z" fill="#116AEF"/>
<path d="M214.998 129.006V59.1876H234.361V129.006H214.998ZM224.725 50.1876C221.846 50.1876 219.376 49.233 217.316 47.3239C215.285 45.3845 214.27 43.0663 214.27 40.3694C214.27 37.7027 215.285 35.4148 217.316 33.5057C219.376 31.5663 221.846 30.5966 224.725 30.5966C227.604 30.5966 230.058 31.5663 232.088 33.5057C234.149 35.4148 235.179 37.7027 235.179 40.3694C235.179 43.0663 234.149 45.3845 232.088 47.3239C230.058 49.233 227.604 50.1876 224.725 50.1876ZM287.418 59.1876V73.733H244.327V59.1876H287.418ZM254.191 129.006V54.1421C254.191 49.0815 255.176 44.8845 257.145 41.5512C259.145 38.2179 261.873 35.7179 265.327 34.0512C268.782 32.3845 272.706 31.5512 277.1 31.5512C280.07 31.5512 282.782 31.7785 285.236 32.233C287.721 32.6876 289.57 33.0966 290.782 33.4603L287.327 48.0057C286.57 47.7633 285.63 47.536 284.509 47.3239C283.418 47.1118 282.297 47.0057 281.145 47.0057C278.297 47.0057 276.312 47.6724 275.191 49.0057C274.07 50.3088 273.509 52.1421 273.509 54.5057V129.006H254.191ZM328.566 130.369C321.384 130.369 315.202 128.915 310.02 126.006C304.869 123.066 300.899 118.915 298.111 113.551C295.323 108.157 293.929 101.778 293.929 94.4148C293.929 87.233 295.323 80.93 298.111 75.5057C300.899 70.0815 304.823 65.8542 309.884 62.8239C314.975 59.7936 320.945 58.2785 327.793 58.2785C332.399 58.2785 336.687 59.0209 340.657 60.5057C344.657 61.9603 348.141 64.1573 351.111 67.0966C354.111 70.036 356.445 73.733 358.111 78.1876C359.778 82.6118 360.611 87.7936 360.611 93.733V99.0512H301.657V87.0512H342.384C342.384 84.2633 341.778 81.7936 340.566 79.6421C339.354 77.4906 337.672 75.8088 335.52 74.5966C333.399 73.3542 330.929 72.733 328.111 72.733C325.172 72.733 322.566 73.4148 320.293 74.7785C318.051 76.1118 316.293 77.9148 315.02 80.1876C313.748 82.43 313.096 84.93 313.066 87.6876V99.0966C313.066 102.551 313.702 105.536 314.975 108.051C316.278 110.566 318.111 112.506 320.475 113.869C322.838 115.233 325.641 115.915 328.884 115.915C331.035 115.915 333.005 115.612 334.793 115.006C336.581 114.4 338.111 113.491 339.384 112.278C340.657 111.066 341.626 109.581 342.293 107.824L360.202 109.006C359.293 113.309 357.429 117.066 354.611 120.278C351.823 123.46 348.217 125.945 343.793 127.733C339.399 129.491 334.323 130.369 328.566 130.369ZM373.611 129.006V35.9148H410.884C417.732 35.9148 423.445 36.93 428.02 38.9603C432.596 40.9906 436.035 43.8088 438.338 47.4148C440.641 50.9906 441.793 55.1118 441.793 59.7785C441.793 63.4148 441.066 66.6118 439.611 69.3694C438.157 72.0966 436.157 74.3391 433.611 76.0966C431.096 77.8239 428.217 79.0512 424.975 79.7785V80.6876C428.52 80.8391 431.838 81.8391 434.929 83.6876C438.051 85.536 440.581 88.1269 442.52 91.4603C444.46 94.7633 445.429 98.7027 445.429 103.278C445.429 108.218 444.202 112.627 441.748 116.506C439.323 120.354 435.732 123.4 430.975 125.642C426.217 127.885 420.354 129.006 413.384 129.006H373.611ZM393.293 112.915H409.338C414.823 112.915 418.823 111.869 421.338 109.778C423.854 107.657 425.111 104.839 425.111 101.324C425.111 98.7482 424.49 96.4754 423.248 94.5057C422.005 92.536 420.232 90.9906 417.929 89.8694C415.657 88.7482 412.945 88.1876 409.793 88.1876H393.293V112.915ZM393.293 74.8694H407.884C410.581 74.8694 412.975 74.3997 415.066 73.4603C417.187 72.4906 418.854 71.1269 420.066 69.3694C421.308 67.6118 421.929 65.5057 421.929 63.0512C421.929 59.6876 420.732 56.9754 418.338 54.9148C415.975 52.8542 412.611 51.8239 408.248 51.8239H393.293V74.8694ZM477.782 130.324C473.327 130.324 469.357 129.551 465.873 128.006C462.388 126.43 459.63 124.112 457.6 121.051C455.6 117.96 454.6 114.112 454.6 109.506C454.6 105.627 455.312 102.369 456.736 99.733C458.16 97.0966 460.1 94.9754 462.554 93.3694C465.009 91.7633 467.797 90.5512 470.918 89.733C474.07 88.9148 477.373 88.3391 480.827 88.0057C484.888 87.5815 488.16 87.1876 490.645 86.8239C493.13 86.43 494.933 85.8542 496.054 85.0966C497.176 84.3391 497.736 83.2179 497.736 81.733V81.4603C497.736 78.5815 496.827 76.3542 495.009 74.7785C493.221 73.2027 490.676 72.4148 487.373 72.4148C483.888 72.4148 481.115 73.1876 479.054 74.733C476.994 76.2482 475.63 78.1573 474.963 80.4603L457.054 79.0057C457.963 74.7633 459.751 71.0966 462.418 68.0057C465.085 64.8845 468.524 62.4906 472.736 60.8239C476.979 59.1269 481.888 58.2785 487.463 58.2785C491.342 58.2785 495.054 58.733 498.6 59.6421C502.176 60.5512 505.342 61.9603 508.1 63.8694C510.888 65.7785 513.085 68.233 514.691 71.233C516.297 74.2027 517.1 77.7633 517.1 81.9148V129.006H498.736V119.324H498.191C497.07 121.506 495.57 123.43 493.691 125.097C491.812 126.733 489.554 128.021 486.918 128.96C484.282 129.869 481.236 130.324 477.782 130.324ZM483.327 116.96C486.176 116.96 488.691 116.4 490.873 115.278C493.054 114.127 494.766 112.581 496.009 110.642C497.251 108.703 497.873 106.506 497.873 104.051V96.6421C497.266 97.036 496.433 97.3997 495.373 97.733C494.342 98.036 493.176 98.3239 491.873 98.5966C490.57 98.8391 489.266 99.0663 487.963 99.2785C486.66 99.4603 485.479 99.6269 484.418 99.7785C482.145 100.112 480.16 100.642 478.463 101.369C476.766 102.097 475.448 103.081 474.509 104.324C473.57 105.536 473.1 107.051 473.1 108.869C473.1 111.506 474.054 113.521 475.963 114.915C477.903 116.278 480.357 116.96 483.327 116.96ZM551.486 88.6421V129.006H532.123V59.1876H550.577V71.5057H551.395C552.941 67.4451 555.532 64.233 559.168 61.8694C562.804 59.4754 567.213 58.2785 572.395 58.2785C577.244 58.2785 581.471 59.3391 585.077 61.4603C588.683 63.5815 591.486 66.6118 593.486 70.5512C595.486 74.4603 596.486 79.1269 596.486 84.5512V129.006H577.123V88.0057C577.153 83.733 576.062 80.3997 573.85 78.0057C571.638 75.5815 568.592 74.3694 564.713 74.3694C562.107 74.3694 559.804 74.93 557.804 76.0512C555.835 77.1724 554.289 78.8088 553.168 80.9603C552.077 83.0815 551.516 85.6421 551.486 88.6421ZM629.293 108.915L629.338 85.6876H632.157L654.52 59.1876H676.748L646.702 94.2785H642.111L629.293 108.915ZM611.748 129.006V35.9148H631.111V129.006H611.748ZM655.384 129.006L634.838 98.5966L647.748 84.9148L678.066 129.006H655.384Z" fill="black"/>
<path d="M158.27 36.0057H139.27V129.006H198.27V112.506H158.27V36.0057Z" fill="black"/>
<mask id="mask0_131_27" style="mask-type:alpha" maskUnits="userSpaceOnUse" x="104" y="17" width="96" height="126">
<path d="M112.179 43.4649C126.037 19.4633 155.3 10.4153 177.541 23.2559C199.781 36.0966 206.577 65.9634 192.719 89.9649C178.867 113.956 108.6 142.743 108.541 142.768C108.541 142.768 98.3221 67.4668 112.179 43.4649Z" fill="white"/>
</mask>
<g mask="url(#mask0_131_27)">
<path d="M158.27 36.0057H139.27V129.006H198.27V112.506H158.27V36.0057Z" fill="#116AEF"/>
</g>
</svg>
