<svg width="204" height="126" viewBox="0 0 204 126" fill="none" xmlns="http://www.w3.org/2000/svg">
<path d="M196.774 7.52393C199.246 6.29416 202.247 7.30145 203.477 9.77393C204.707 12.2463 203.699 15.2473 201.227 16.4771L178.372 27.8442C182.328 38.5568 182.655 50.6989 179.123 61.0444C175.289 76.4954 161.533 88.5824 145.566 98.3892C129.308 108.374 109.438 116.77 91.77 124.235L89.6489 125.131L87.5884 124.101C84.9461 122.78 82.8396 121.965 75.5142 118.531C68.4326 115.211 56.8428 109.603 36.0669 99.0903C35.9126 99.0122 35.76 98.9316 35.6069 98.853L10.2271 111.477C7.7547 112.707 4.75379 111.699 3.52393 109.227C2.29417 106.755 3.30149 103.754 5.77393 102.524L196.774 7.52393ZM46.7837 93.2935C63.6597 101.788 73.5266 106.555 79.7593 109.477C84.7976 111.839 87.6854 113.096 89.9497 114.145C107.182 106.858 125.439 99.0158 140.333 89.8687C156.03 80.2276 166.711 69.8894 169.463 58.4585L169.521 58.2192L169.602 57.9868C172.323 50.1638 172.209 40.7494 169.353 32.3296L46.7837 93.2935ZM136.076 0.135254C151.167 -0.985026 162.779 4.956 170.468 14.0884L161.182 18.7212C155.42 12.8585 147.287 9.3001 136.708 10.1138L136.597 10.1226L136.486 10.1265C108.789 11.02 98.5116 38.3621 95.4849 42.9028C94.981 43.6586 93.9232 44.8172 92.1265 45.189C90.3696 45.5522 88.9801 44.9367 88.2769 44.5132C87.0813 43.793 86.3348 42.7099 86.0796 42.3433C85.3728 41.3279 84.531 39.7833 83.7378 38.3599C82.006 35.252 79.6393 31.087 76.2847 26.8647C69.6616 18.5288 59.4064 10.2079 43.0542 10.1304C29.212 11.522 21.2579 18.5888 16.6362 25.3306C14.2777 28.7713 12.7827 32.1471 11.8823 34.6597C11.4343 35.91 11.1394 36.9315 10.9604 37.6177C10.8712 37.9599 10.8112 38.218 10.7759 38.3774C10.7584 38.4567 10.7466 38.5119 10.7407 38.5405C10.7404 38.5418 10.7392 38.5433 10.7388 38.5444L10.7114 38.6948L10.6753 38.8413C10.6747 38.8439 10.674 38.8471 10.6733 38.8501C10.6651 38.8861 10.649 38.9549 10.6284 39.0542C10.587 39.2536 10.5245 39.577 10.4546 40.0112C10.3146 40.8812 10.1463 42.1916 10.0591 43.8452C9.8842 47.1613 10.0381 51.8018 11.3589 57.0288C13.4386 65.2589 18.4827 75.2667 30.3901 83.9731L20.4995 88.9067C9.39599 79.4997 4.03006 68.8441 1.66357 59.479C0.0470088 53.0815 -0.141962 47.4089 0.0737305 43.3188C0.181801 41.27 0.391522 39.603 0.581543 38.4224C0.676615 37.8317 0.767238 37.3601 0.837402 37.022C0.872421 36.8533 0.903039 36.7171 0.92627 36.6157C0.92927 36.6026 0.93229 36.5896 0.935059 36.5776C0.936907 36.5684 0.938884 36.5583 0.940918 36.5483C0.957821 36.4652 0.980946 36.3532 1.01123 36.2163C1.07188 35.9423 1.16125 35.5627 1.28369 35.0933C1.52851 34.1547 1.90979 32.8469 2.46924 31.2856C3.5845 28.1735 5.43387 23.9858 8.38721 19.6772C14.3635 10.959 24.8439 1.81917 42.3501 0.151855L42.5864 0.129395H42.8237C63.3371 0.129523 76.2679 10.7691 84.1138 20.644C86.9369 24.1974 89.1289 27.6832 90.7954 30.5405C92.7699 27.1024 95.5129 22.8403 99.1655 18.6108C106.854 9.70846 118.784 0.721975 136.076 0.135254ZM10.7388 38.5503C10.7386 38.5512 10.738 38.5532 10.7378 38.5542C10.7375 38.5559 10.7371 38.5579 10.7368 38.5591L10.7378 38.5493L10.7388 38.5503Z" fill="#ADC1CE"/>
</svg>
