<svg width="240" height="176" viewBox="0 0 240 176" fill="none" xmlns="http://www.w3.org/2000/svg">
<path d="M152.06 0C135.707 0.00255924 119.677 4.5566 105.766 13.1523C91.8538 21.7481 80.609 34.0462 73.29 48.67C67.2077 60.7939 64.0273 74.1659 64 87.73C64.0313 89.791 63.2834 91.7879 61.9058 93.3212C60.5283 94.8545 58.6226 95.8112 56.57 96C55.4725 96.0784 54.3706 95.9296 53.3332 95.5628C52.2958 95.196 51.3453 94.6191 50.5409 93.8683C49.7366 93.1175 49.0958 92.2088 48.6586 91.1991C48.2214 90.1894 47.9972 89.1003 48 88C47.9923 76.8104 49.7956 65.6934 53.34 55.08C53.5736 54.3995 53.6193 53.6686 53.4723 52.9643C53.3253 52.2599 52.9911 51.6083 52.5048 51.078C52.0185 50.5477 51.3982 50.1584 50.7093 49.9511C50.0203 49.7438 49.2882 49.7261 48.59 49.9C34.7282 53.355 22.4182 61.3422 13.6148 72.5933C4.81143 83.8444 0.0194947 97.7142 0 112C0 147.19 29.75 176 65 176H152C163.846 175.987 175.567 173.586 186.463 168.939C197.359 164.292 207.206 157.495 215.414 148.955C223.623 140.414 230.025 130.306 234.237 119.235C238.45 108.164 240.386 96.3568 239.93 84.52C238.11 37.54 199.07 0 152.06 0Z" fill="white" fill-opacity="0.65"/>
</svg>
