<svg width="225" height="200" viewBox="0 0 225 200" fill="none" xmlns="http://www.w3.org/2000/svg">
<path d="M220.811 164.091L133.361 12.2207C131.175 8.49991 128.056 5.41485 124.311 3.27126C120.566 1.12768 116.326 0 112.011 0C107.696 0 103.456 1.12768 99.7107 3.27126C95.9657 5.41485 92.846 8.49991 90.6607 12.2207L3.21073 164.091C1.10809 167.689 0 171.783 0 175.951C0 180.119 1.10809 184.212 3.21073 187.811C5.36803 191.554 8.48243 194.656 12.2343 196.798C15.9862 198.94 20.2406 200.046 24.5607 200.001H199.461C203.778 200.042 208.028 198.935 211.776 196.793C215.524 194.651 218.635 191.551 220.791 187.811C222.896 184.214 224.008 180.121 224.011 175.953C224.015 171.785 222.91 167.691 220.811 164.091ZM104.011 80.0007C104.011 77.8789 104.854 75.8441 106.354 74.3438C107.854 72.8435 109.889 72.0007 112.011 72.0007C114.132 72.0007 116.167 72.8435 117.668 74.3438C119.168 75.8441 120.011 77.8789 120.011 80.0007V120.001C120.011 122.122 119.168 124.157 117.668 125.658C116.167 127.158 114.132 128.001 112.011 128.001C109.889 128.001 107.854 127.158 106.354 125.658C104.854 124.157 104.011 122.122 104.011 120.001V80.0007ZM112.011 168.001C109.637 168.001 107.317 167.297 105.344 165.978C103.37 164.66 101.832 162.786 100.924 160.593C100.016 158.4 99.7783 155.987 100.241 153.66C100.704 151.332 101.847 149.194 103.525 147.515C105.204 145.837 107.342 144.694 109.67 144.231C111.997 143.768 114.41 144.006 116.603 144.914C118.796 145.822 120.67 147.36 121.988 149.334C123.307 151.307 124.011 153.627 124.011 156.001C124.011 159.183 122.746 162.235 120.496 164.486C118.246 166.736 115.193 168.001 112.011 168.001Z" fill="white" fill-opacity="0.65"/>
</svg>
