<svg width="179" height="201" viewBox="0 0 179 201" fill="none" xmlns="http://www.w3.org/2000/svg">
<path d="M60.4667 89.1152C62.2893 98.0023 65.1359 112.09 67.9101 125.878C70.0035 136.283 72.0508 146.485 73.5741 154.086C74.3358 157.886 74.9668 161.037 75.4072 163.237C75.6273 164.337 75.7994 165.2 75.9169 165.787C75.9756 166.081 76.0214 166.306 76.0517 166.457C76.0668 166.533 76.0782 166.59 76.0859 166.629C76.0896 166.648 76.0927 166.662 76.0947 166.672C76.0955 166.676 76.0961 166.68 76.0966 166.683V166.686C76.0967 166.686 76.0972 166.686 79.5292 166L76.0976 166.687L76.1523 166.964L76.2519 167.229L79.5292 166L76.2529 167.231L76.2538 167.233C76.2544 167.235 76.2552 167.237 76.2558 167.238C76.257 167.241 76.2583 167.245 76.2597 167.249C76.2626 167.257 76.2658 167.266 76.2695 167.275C76.277 167.295 76.2868 167.319 76.2978 167.347C76.3197 167.401 76.3491 167.471 76.3847 167.554C76.4551 167.716 76.5571 167.939 76.6884 168.189C76.9077 168.607 77.3783 169.438 78.1415 170.116C78.5421 170.472 79.1944 170.94 80.0966 171.159C81.0933 171.401 82.1429 171.274 83.0751 170.776C84.6387 169.942 85.3895 168.342 85.8066 167.229C86.6198 165.06 89.9262 153.728 92.955 143.22C94.4726 137.955 95.9432 132.812 97.0419 128.963C97.2065 129.297 97.3657 129.625 97.5234 129.94C98.1581 131.21 98.7603 132.382 99.2031 133.236C99.4245 133.663 99.6071 134.012 99.7343 134.255C99.7979 134.376 99.8485 134.471 99.8827 134.536C99.8921 134.554 99.9002 134.57 99.9072 134.583C99.9078 134.584 99.9085 134.586 99.9091 134.587C99.9129 134.594 99.9174 134.603 99.9218 134.611C99.9307 134.629 99.9416 134.648 99.9531 134.67C99.9759 134.713 100.004 134.764 100.037 134.822C100.104 134.939 100.193 135.086 100.305 135.254C100.524 135.584 100.855 136.024 101.305 136.475C102.186 137.356 103.774 138.5 106.029 138.5H143.454C141.491 148.604 136.309 162.96 126.279 175.315C115.035 189.166 97.6994 200.5 72.0292 200.5C46.3527 200.5 29.0915 188.785 17.9501 174.748C8.08621 162.321 3.01559 148.07 1.11321 138.5H43.5292V135C43.5286 138.341 43.53 138.493 43.5312 138.5H43.5751C43.5935 138.5 43.6151 138.5 43.6396 138.499C43.6889 138.498 43.7509 138.496 43.8232 138.492C43.9671 138.485 44.1579 138.473 44.3818 138.449C44.8176 138.402 45.4405 138.305 46.121 138.096C47.3185 137.727 49.7214 136.663 50.4247 133.849C50.6896 132.788 53.7056 119.339 56.6318 106.265C58.024 100.044 59.402 93.8794 60.4667 89.1152ZM72.5292 0C73.7328 2.9721e-05 74.7303 0.744026 75.3827 1.39648C75.7178 1.73152 75.9844 2.06459 76.1669 2.31348C76.2585 2.43835 76.3298 2.54353 76.3788 2.61816C76.4032 2.65524 76.4222 2.68492 76.4355 2.70605C76.4388 2.71132 76.4417 2.71653 76.4443 2.7207L125.942 76.2178L127.236 78.1377C139.585 96.6934 145.871 113.36 144.409 131.5H106.231C106.191 131.456 106.154 131.409 106.129 131.371C106.125 131.365 106.121 131.36 106.119 131.356C106.117 131.353 106.115 131.347 106.111 131.341C106.103 131.326 106.09 131.302 106.074 131.271C106.042 131.21 105.995 131.119 105.934 131.003C105.811 130.769 105.634 130.43 105.418 130.014C104.986 129.18 104.4 128.04 103.785 126.81C102.503 124.245 101.255 121.609 100.85 120.394C100.676 119.874 100.455 119.335 100.157 118.838C99.8744 118.367 99.3905 117.71 98.5956 117.233C97.6814 116.685 96.5873 116.519 95.5361 116.806C94.6227 117.055 94.009 117.571 93.6796 117.9C93.0446 118.535 92.6794 119.277 92.5292 119.599C92.433 119.805 92.3588 119.988 92.3075 120.121C92.2817 120.188 92.2603 120.246 92.2441 120.292C92.2359 120.315 92.2284 120.336 92.2226 120.353C92.2198 120.361 92.217 120.368 92.2148 120.375C92.2137 120.378 92.2128 120.382 92.2118 120.385C92.2114 120.386 92.2104 120.388 92.2099 120.39V120.392C92.2172 120.395 92.3719 120.448 95.5292 121.5L92.2089 120.394L92.1835 120.469L92.162 120.544V120.546C92.1617 120.547 92.1608 120.549 92.1601 120.552C92.1587 120.557 92.1568 120.564 92.1542 120.573C92.1487 120.593 92.1406 120.622 92.1298 120.66C92.1081 120.737 92.0753 120.851 92.0331 120.999C91.9487 121.296 91.8245 121.733 91.6659 122.29C91.3488 123.404 90.8941 125.002 90.3437 126.931C89.2426 130.788 87.7585 135.973 86.2284 141.281C84.5149 147.226 82.7692 153.225 81.4374 157.707C81.1384 156.214 80.8035 154.537 80.4374 152.711C78.9139 145.109 76.8673 134.904 74.7734 124.497C70.5952 103.731 66.204 82.0264 65.4394 78.7129C65.228 77.7972 64.989 76.9817 64.7021 76.291C64.4467 75.6764 64.0097 74.798 63.2197 74.1133C62.7841 73.7358 62.1694 73.3561 61.3759 73.1924C60.5578 73.0236 59.7833 73.1334 59.1376 73.3877C57.9996 73.8361 57.3544 74.6866 57.0888 75.0703C56.4943 75.9291 56.1336 76.9632 55.957 77.5098C55.8519 77.8348 55.7703 78.1245 55.7148 78.333C55.6868 78.4382 55.6643 78.5262 55.6484 78.5908C55.6405 78.6227 55.6337 78.6495 55.6288 78.6699C55.6265 78.6799 55.6246 78.6892 55.623 78.6963C55.6222 78.6997 55.6207 78.7033 55.62 78.7061C55.6198 78.7072 55.6201 78.7089 55.62 78.71L55.6191 78.7119C55.6202 78.7129 55.6805 78.7266 58.3671 79.3467L55.6191 78.7129L55.6161 78.7256L55.6132 78.7373V78.7402C55.6129 78.7417 55.6119 78.7443 55.6113 78.7471C55.6099 78.7532 55.608 78.7626 55.6054 78.7744C55.5999 78.799 55.5908 78.8364 55.58 78.8848C55.5582 78.9822 55.5264 79.1278 55.4843 79.3164C55.4 79.694 55.2757 80.2484 55.1181 80.9541C54.8027 82.366 54.3514 84.3853 53.8085 86.8145C52.7227 91.6734 51.2703 98.1736 49.8017 104.735C47.1614 116.532 44.4881 128.43 43.79 131.465C43.7358 131.474 43.6817 131.484 43.6298 131.489C43.565 131.496 43.5171 131.499 43.495 131.5H0.16399C-1.1356 113.694 5.36027 93.6175 17.1161 76.2197C23.3698 66.9648 36.2473 48.5857 47.5585 32.5244C53.2148 24.4928 58.4804 17.0392 62.332 11.5938C64.2577 8.8711 65.83 6.65044 66.9208 5.11035C67.4662 4.34031 67.8919 3.74039 68.1806 3.33301C68.3248 3.12952 68.4346 2.97374 68.5087 2.86914C68.5457 2.81703 68.5739 2.77748 68.5927 2.75098C68.6021 2.73774 68.6095 2.72737 68.6142 2.7207C68.6168 2.71653 68.6197 2.71131 68.623 2.70605C68.6362 2.68492 68.6553 2.65523 68.6796 2.61816C68.7287 2.54352 68.8 2.43834 68.8915 2.31348C69.0741 2.06459 69.3407 1.73152 69.6757 1.39648C70.3282 0.744021 71.3257 0 72.5292 0Z" fill="white"/>
<path d="M130.524 21C130.527 21.0001 130.529 21.0222 130.529 24.2734V21H147.529V24.2734C147.529 21 147.532 21 147.535 21H147.578C147.595 21.0002 147.613 21.0005 147.632 21.001C147.67 21.002 147.712 21.0043 147.757 21.0068C147.847 21.0119 147.954 21.0201 148.072 21.0342C148.308 21.0623 148.602 21.1137 148.935 21.2061C149.602 21.3914 150.446 21.7503 151.27 22.4365C153.031 23.9045 154.029 26.2757 154.029 29.5V41.9551C154.03 41.9592 154.03 41.9649 154.03 41.9717C154.033 42.012 154.039 42.0897 154.054 42.1904C154.086 42.4097 154.145 42.6425 154.228 42.8281C154.262 42.9056 154.291 42.9536 154.31 42.9805C154.349 42.9889 154.418 43 154.529 43H166.529C169.403 43 171.581 43.5592 173.091 44.7666C173.87 45.3896 174.381 46.1202 174.682 46.8418C174.827 47.1913 174.914 47.5167 174.965 47.7988C174.99 47.9395 175.006 48.0694 175.016 48.1865C175.021 48.2451 175.024 48.3013 175.026 48.3535C175.027 48.3794 175.028 48.4045 175.028 48.4287C175.029 48.4408 175.029 48.4531 175.029 48.4648V48.4912C175.029 48.4955 175.029 48.5 171.529 48.5H175.029V64.5H171.529C175.029 64.5 175.029 64.5022 175.029 64.5039V64.5303C175.029 64.5413 175.029 64.5534 175.028 64.5664C175.028 64.5924 175.027 64.6227 175.026 64.6562C175.024 64.723 175.02 64.8048 175.014 64.8994C175 65.0881 174.975 65.3352 174.927 65.6221C174.834 66.1794 174.642 66.9764 174.223 67.8154C173.796 68.6681 173.101 69.6271 171.994 70.3652C170.865 71.118 169.517 71.5 168.029 71.5H154.529C154.346 71.5 154.181 71.5033 154.032 71.5078C154.031 71.656 154.029 71.8182 154.029 72V84C154.029 87.3716 153.096 89.833 151.395 91.3926C150.579 92.14 149.723 92.5471 149.021 92.7617C148.673 92.8679 148.363 92.9271 148.112 92.96C147.986 92.9764 147.874 92.9862 147.776 92.9922C147.728 92.9952 147.683 92.9968 147.642 92.998C147.621 92.9987 147.601 92.9997 147.582 93H147.535C147.532 92.9964 147.529 92.8864 147.529 89.5V93H130.529V89.5C130.529 93 130.526 93 130.523 93H130.483C130.467 92.9998 130.449 92.9995 130.431 92.999C130.394 92.9981 130.352 92.9965 130.307 92.9941C130.216 92.9894 130.109 92.9814 129.988 92.9678C129.747 92.9407 129.443 92.8907 129.096 92.7998C128.403 92.6183 127.505 92.2621 126.617 91.5645C124.7 90.058 123.529 87.5446 123.529 84V72C123.529 71.821 123.527 71.6557 123.526 71.502C123.373 71.5016 123.208 71.5 123.029 71.5H111.029C107.337 71.5 104.725 70.3974 103.122 68.5273C102.364 67.6433 101.965 66.7331 101.758 66.0088C101.655 65.6484 101.599 65.3301 101.567 65.0762C101.552 64.9488 101.542 64.8354 101.536 64.7393C101.533 64.6911 101.532 64.6463 101.531 64.6064C101.531 64.5866 101.53 64.5675 101.529 64.5498V64.5059C101.529 64.5029 101.549 64.5 105.029 64.5H101.529V48.5H105.029C101.529 48.5 101.529 48.4961 101.529 48.4922V48.4688C101.529 48.4582 101.53 48.4474 101.53 48.4365C101.531 48.4144 101.53 48.3909 101.531 48.3672C101.533 48.3199 101.536 48.2693 101.54 48.2158C101.548 48.1088 101.561 47.9888 101.582 47.8584C101.624 47.598 101.697 47.2921 101.822 46.959C102.079 46.2739 102.533 45.5361 103.267 44.8838C104.723 43.5897 106.835 43 109.529 43H122.258C122.468 42.8864 122.706 42.7431 122.93 42.5752C123.406 42.2182 123.51 42.0025 123.529 41.9541V29.5C123.529 26.0801 124.792 23.6728 126.745 22.2773C127.631 21.6443 128.512 21.33 129.172 21.1729C129.505 21.0936 129.795 21.0516 130.023 21.0283C130.138 21.0166 130.239 21.0089 130.323 21.0049C130.366 21.0029 130.404 21.0018 130.438 21.001C130.456 21.0006 130.472 21.0002 130.487 21H130.524Z" fill="#75C169" stroke="white" stroke-width="7"/>
</svg>
